<?xml version="1.0"?>
<svg xmlns="http://www.w3.org/2000/svg" id="Layer_1" enable-background="new 0 0 496.075 496.075" height="512px" viewBox="0 0 496.075 496.075" width="512px" class=""><g><path d="m224.469 449.304-6 10c-4.544 7.574-14.37 10.036-21.952 5.488-7.577-4.546-10.034-14.375-5.488-21.952l6-10c4.546-7.577 14.375-10.033 21.952-5.488 7.578 4.547 10.035 14.375 5.488 21.952zm64.142-22.167c-7.698-4.343-17.456-1.622-21.797 6.074l-22 39c-4.342 7.697-1.622 17.456 6.074 21.797 7.696 4.342 17.455 1.623 21.797-6.074l22-39c4.342-7.697 1.622-17.456-6.074-21.797zm60.37.216c-7.577-4.545-17.405-2.089-21.952 5.488l-6 10c-4.546 7.577-2.089 17.405 5.488 21.952 7.582 4.549 17.408 2.085 21.952-5.488l6-10c4.547-7.578 2.09-17.406-5.488-21.952zm143.751-215.721c-12.117 43.871-42.505 82.677-85.8 104.588-6.495 52.062-51.022 92.481-104.815 92.481-120.593 0-112.854.079-114.639-.162l-54.171 80.401c-9.238 13.714-30.877 5.966-29.186-10.568l5.433-53.113h-32.121c-4.489 0-8.771-1.886-11.802-5.196-5.241-5.725-4.165-11.88-3.86-15.335-34.526-10.976-59.021-43.354-59.021-80.759 0-44.808 34.963-81.604 79.04-84.542-4.016-49.09 32.232-99.947 87.132-109.544 22.521-98.767 127.39-154.683 221.682-119.132 11.598 4.372 14.024 19.755 4.328 27.483-21.088 16.809-33.183 41.9-33.183 68.838 0 57.739 55.157 100.306 111.32 84.872 11.959-3.282 22.965 7.734 19.663 19.688zm-116.982 91.436c0-49.471-48.184-85.149-95.678-70.279-9.15 2.866-18.766-2.921-20.513-12.358-6.446-34.841-36.894-60.128-72.396-60.128-40.601 0-73.632 33.032-73.632 73.633 0 4.044 1.469 13.907 2.513 19.619 2.018 11.039-7.686 20.678-18.705 18.601-32.69-6.164-62.588 19.003-62.588 51.815 0 20.758 12.111 39.029 29.958 47.584l4.827-54.544c.779-8.802 8.542-15.304 17.348-14.527 8.802.779 15.306 8.546 14.527 17.348l-6.498 73.428h32.362c4.527 0 8.842 1.917 11.875 5.277 5.572 6.171 4.038 12.386 3.304 19.561l23.881-35.444h-20.572c-10.38 0-18.011-9.747-15.538-19.816l11.254-45.821c2.107-8.582 10.773-13.83 19.354-11.722 8.582 2.107 13.83 10.773 11.722 19.354l-6.387 26.004h30.239c11.893 0 21.226 13.131 12.522 26.049h93.188c40.601-.001 73.633-33.033 73.633-73.634zm76.936-76.031c-101.233 2.477-159.027-114.04-98.153-193.055-69.006-11.719-133.765 31.545-152.428 95.393 38.883 5.525 71.561 32.284 84.624 69.176 55.31-8.085 106.721 28.223 118.536 81.719 20.178-13.202 36.66-31.717 47.421-53.233z" data-original="#000000" class="active-path" data-old_color="#000000" fill="#FFFFFF"/></g> </svg>
